<svg width="1083" height="1015" viewBox="0 0 1083 1015" fill="none" xmlns="http://www.w3.org/2000/svg">
<path fill-rule="evenodd" clip-rule="evenodd" d="M0 1C16.6715 23.1172 35.6525 46.9896 57.2207 72.699C129.003 158.264 109.032 268.811 91.3183 366.865C69.1395 489.634 50.4983 592.82 219.911 602.872C371.144 611.846 436.762 675.186 488.992 725.604C542.001 776.774 581.22 814.632 682.159 768.834C882.552 677.91 1060.36 468.338 1083.18 362.002V1H0Z" fill="#DEC7FB" fill-opacity="0.2"/>
<path fill-rule="evenodd" clip-rule="evenodd" d="M1083.18 0H72.4417C96.8025 48.819 144.517 119.134 231.381 215.251C308.327 300.394 286.92 410.395 267.931 507.966C244.157 630.129 224.175 732.806 405.774 742.809C566.855 751.681 667.178 836.006 753.256 908.358C841.727 982.721 915.15 1044.44 1024.03 998.578C1045.13 989.69 1064.81 978.789 1083.18 966.254V0Z" fill="#9C3FFA" fill-opacity="0.05"/>
</svg>
