<svg width="854" height="800" viewBox="0 0 854 800" fill="none" xmlns="http://www.w3.org/2000/svg">
<path fill-rule="evenodd" clip-rule="evenodd" d="M854 0.788818C840.851 18.2327 825.881 37.0611 808.87 57.3382C752.254 124.824 768.006 212.013 781.977 289.349C799.469 386.177 814.172 467.56 680.555 475.489C561.276 482.566 509.524 532.523 468.33 572.288C426.521 612.646 395.588 642.505 315.978 606.383C157.926 534.671 17.6849 369.381 -0.306274 285.513V0.788818H854Z" fill="#DEC7FB" fill-opacity="0.2"/>
<path fill-rule="evenodd" clip-rule="evenodd" d="M-0.305237 0H796.866C777.653 38.5038 740.02 93.9616 671.51 169.77C610.822 236.922 627.706 323.681 642.682 400.635C661.433 496.986 677.193 577.968 533.965 585.857C406.919 592.855 327.794 659.363 259.904 716.427C190.126 775.078 132.217 823.753 46.3455 787.584C29.7025 780.574 14.1781 771.976 -0.305237 762.09V0Z" fill="#9C3FFA" fill-opacity="0.05"/>
</svg>
