<svg viewBox="0 0 100 29" fill="none" xmlns="http://www.w3.org/2000/svg">
<path d="M10.9383 18.2498L17.2815 1.07983H21.3823L11.0355 28.2937L0 1.07983H4.16258L10.9383 18.2498Z" fill="#9C3FFA"/>
<path d="M28.602 11.717H37.4069V15.4149H28.602V27.2138H24.8379V1.07983H39.3087V4.74231H28.602V11.717Z" fill="#9C3FFA"/>
<path d="M53.5942 21.6377H44.93L42.8641 27.2138H38.6611L49.2621 0L59.8274 27.2138H55.6601L53.5942 21.6377ZM52.214 17.991L49.2621 10.044L46.3102 17.991H52.214Z" fill="#9C3FFA"/>
<path d="M66.8058 10.4663V27.1079H63.0669V0L78.0836 17.8274V1.221H81.8574V28.2937L66.8058 10.4663Z" fill="#9C3FFA"/>
<path d="M99.7821 21.9444C99.432 23.2174 98.7465 24.3682 97.8001 25.272C96.8536 26.1758 95.6824 26.7979 94.4135 27.0708C93.9369 27.171 93.4511 27.2187 92.9644 27.2132C91.9927 27.2189 91.0296 27.0268 90.1317 26.648C88.5382 25.9159 87.1709 24.7542 86.1772 23.2883L89.1365 20.7429C89.7069 21.645 90.523 22.3579 91.4848 22.7943C92.1701 23.1054 92.9362 23.1804 93.6671 23.0079C94.2405 22.9067 94.7764 22.6494 95.2182 22.2632C95.6599 21.877 95.9912 21.3764 96.1769 20.8141C96.4998 19.6126 95.7404 18.5535 95.0813 17.846C94.0207 16.7468 92.2835 14.8779 92.1569 14.731L89.2282 11.6917C88.3756 10.8103 87.7464 9.73044 87.395 8.54554C87.0599 7.44571 87.0426 6.27074 87.3452 5.16117C87.6479 4.0516 88.2577 3.0544 89.1016 2.28888C89.9064 1.53828 90.8961 1.02457 91.9649 0.802597C93.144 0.523666 94.3788 0.623146 95.5003 1.0874C96.7915 1.66694 97.9122 2.57949 98.752 3.73512L95.8233 6.31611C94.6012 4.69187 93.3441 4.69187 92.672 4.83427C92.2731 4.90131 91.8997 5.07806 91.592 5.34545C91.2844 5.61285 91.0541 5.96076 90.9261 6.35171C90.7951 6.84565 90.8301 7.66 91.8252 8.71909L95.8146 12.9288C96.3951 13.5651 97.1022 14.3038 97.6172 14.8378C98.5921 15.7772 99.3123 16.9575 99.7079 18.2643C100.07 19.4596 100.096 20.7348 99.7821 21.9444Z" fill="#9C3FFA"/>
</svg>
