<svg width="24" height="24" viewBox="0 0 24 24" stroke="currentColor" fill="none" xmlns="http://www.w3.org/2000/svg">
<path d="M18.744 20C18.744 16.904 15.664 14.4 11.872 14.4C8.08 14.4 5 16.904 5 20M11.872 12C12.9329 12 13.9503 11.5786 14.7004 10.8284C15.4506 10.0783 15.872 9.06087 15.872 8C15.872 6.93913 15.4506 5.92172 14.7004 5.17157C13.9503 4.42143 12.9329 4 11.872 4C10.8111 4 9.79372 4.42143 9.04357 5.17157C8.29343 5.92172 7.872 6.93913 7.872 8C7.872 9.06087 8.29343 10.0783 9.04357 10.8284C9.79372 11.5786 10.8111 12 11.872 12V12Z" stroke="currentColor" stroke-width="1.5" stroke-linecap="round" stroke-linejoin="round"/>
</svg>
